<svg width="330" height="122" viewBox="0 0 330 122" fill="none" xmlns="http://www.w3.org/2000/svg">
<g clip-path="url(#clip0_1_84)">
<path d="M31.6785 54.9973C29.6046 54.9973 27.6031 54.1935 26.108 52.7546C25.6981 52.3608 25.3283 51.9187 25.0148 51.4524H24.4119C23.0374 52.7225 21.2208 53.5183 19.2032 53.5745L8.27929 53.9041C8.1989 53.9041 8.11852 53.9041 8.03814 53.9041C5.93213 53.9041 3.90651 53.0762 2.40337 51.5971C0.835919 50.0618 -0.0322059 47.9478 -5.31446e-05 45.7534L0.4742 13.0781C0.538506 8.80179 3.93062 5.32929 8.1989 5.16049L20.3527 4.68624C20.4571 4.68624 20.5616 4.68624 20.6661 4.68624C22.5873 4.68624 24.3959 5.36948 25.8106 6.5511C27.3137 4.79877 29.5242 3.73773 31.9196 3.73773H44.6441C46.8626 3.73773 48.9847 4.65409 50.5039 6.26976C52.0231 7.88544 52.8028 10.0638 52.6662 12.2743L50.4878 46.9832C50.2306 51.0827 46.9189 54.3301 42.8194 54.507L32.0402 54.9812C31.9196 54.9812 31.8071 54.9812 31.6865 54.9812L31.6785 54.9973Z" fill="#930934"/>
<path d="M64.0402 53.7675C62.6094 53.7675 61.243 53.3897 60.0533 52.7064C58.8636 53.3897 57.4972 53.7675 56.0664 53.7675C55.8011 53.7675 55.5439 53.7514 55.2786 53.7273L43.2213 52.5457C40.834 52.3126 38.6717 51.0184 37.3293 49.0249C35.987 47.0315 35.6172 44.5396 36.3004 42.2407L45.7132 10.7471C46.6858 7.48355 49.6117 5.19266 53.0118 5.02386L66.1543 4.36473C66.2909 4.36473 66.4276 4.35669 66.5642 4.35669C70.1252 4.35669 73.2842 6.71188 74.2809 10.1603L83.5007 41.9835C84.1518 44.2342 83.7901 46.6617 82.504 48.6311C81.2179 50.5924 79.136 51.8946 76.8129 52.2L65.0852 53.7112C64.7396 53.7594 64.3939 53.7755 64.0483 53.7755L64.0402 53.7675Z" fill="#930934"/>
<path d="M90.4377 54.9973C87.0777 54.9973 83.8946 54.3703 80.9767 53.1244C78.0669 51.8865 75.5107 50.1342 73.3726 47.9237C71.2585 45.7373 69.5946 43.1571 68.4211 40.2472C67.2475 37.3454 66.6526 34.2105 66.6526 30.931C66.6526 28.5918 66.9259 26.2608 67.4645 24.0101C68.0031 21.7755 68.7828 19.6212 69.7875 17.6117C70.8164 15.5619 72.0865 13.6569 73.5735 11.9447C75.1088 10.1683 76.8772 8.61694 78.8225 7.33083C80.7918 6.02864 82.9702 5.01583 85.2852 4.30043C87.6323 3.57699 90.1483 3.21527 92.7527 3.21527C93.6127 3.21527 94.5371 3.24742 95.5017 3.31977C96.5467 3.39211 97.5917 3.52072 98.6205 3.7056C99.762 3.90656 100.887 4.18789 101.964 4.54157C103.218 4.95152 104.4 5.474 105.477 6.10098C108.146 7.64432 109.697 10.5702 109.472 13.6488L109.054 19.3238C109.199 19.4444 109.343 19.565 109.48 19.6936C111.056 21.1806 111.964 23.2304 111.996 25.3926L112.277 41.2842C112.31 43.149 111.691 44.9737 110.525 46.4366C109.231 48.0603 107.647 49.4751 105.815 50.6406C104.247 51.6454 102.543 52.4814 100.767 53.1325C99.0868 53.7514 97.3264 54.2256 95.55 54.5311C93.7896 54.8365 92.0614 54.9973 90.4296 54.9973H90.4377Z" fill="#930934"/>
<path d="M124.126 53.7675C122.695 53.7675 121.328 53.3897 120.139 52.7064C118.949 53.3897 117.583 53.7675 116.152 53.7675C115.887 53.7675 115.629 53.7514 115.364 53.7273L103.307 52.5457C100.919 52.3126 98.7572 51.0184 97.4148 49.0249C96.0725 47.0315 95.7027 44.5396 96.386 42.2407L105.799 10.7471C106.771 7.48355 109.697 5.19266 113.097 5.02386L126.24 4.36473C126.376 4.36473 126.513 4.35669 126.65 4.35669C130.211 4.35669 133.37 6.71188 134.366 10.1603L143.586 41.9835C144.237 44.2342 143.876 46.6617 142.589 48.6311C141.303 50.5924 139.221 51.8946 136.898 52.2L125.171 53.7112C124.825 53.7594 124.479 53.7755 124.134 53.7755L124.126 53.7675Z" fill="#930934"/>
<path d="M139.495 53.7192C137.437 53.7192 135.452 52.9315 133.956 51.5087C132.357 49.9895 131.457 47.8755 131.457 45.665L131.489 31.6222C129.769 31.4052 128.153 30.6335 126.899 29.4117C125.291 27.8523 124.407 25.682 124.463 23.4474L124.745 12.2904C124.857 7.94171 128.41 4.46117 132.767 4.45314C132.767 4.45314 158.545 4.40491 158.553 4.40491C160.716 4.40491 162.789 5.27303 164.301 6.8244C165.82 8.37577 166.64 10.4657 166.592 12.636L166.358 22.6596C166.262 26.8717 162.926 30.2879 158.722 30.4969L157.492 45.8096C157.171 49.8287 153.923 52.9878 149.896 53.1967L139.921 53.7192C139.784 53.7192 139.639 53.7273 139.503 53.7273L139.495 53.7192Z" fill="#930934"/>
<path d="M176.824 54.0488C175.538 54.0488 174.292 53.7434 173.183 53.1727C172.162 53.6389 171.021 53.9041 169.831 53.9041H159.663C157.5 53.9041 155.426 53.036 153.915 51.4846C152.404 49.9413 151.576 47.8514 151.624 45.6891C151.705 42.1041 151.777 38.5271 151.85 34.9742C151.922 31.3972 152.002 27.7961 152.099 24.1869L152.195 18.8657C152.227 17.0088 152.292 15.0957 152.396 13.1987C152.565 9.99953 154.615 7.20224 157.621 6.08493C158.995 5.57852 160.378 5.14446 161.728 4.80686C163.071 4.46925 164.437 4.20399 165.804 4.01911C167.106 3.83424 168.448 3.71366 169.791 3.64132C171.037 3.57701 172.315 3.54486 173.609 3.54486C176.173 3.54486 178.689 3.90658 181.1 4.62198C183.721 5.39365 186.1 6.59937 188.174 8.19094C190.385 9.887 192.177 12.0252 193.495 14.5331C194.886 17.1776 195.593 20.1759 195.593 23.4555C195.593 25.2399 195.425 26.928 195.095 28.4713C194.717 30.2317 194.106 31.8956 193.278 33.4148C192.884 34.1302 192.434 34.8295 191.936 35.4967L194.46 39.9981C195.722 42.2488 195.826 44.9657 194.749 47.3048C193.664 49.6439 191.526 51.3239 188.994 51.8223L178.351 53.9041C177.837 54.0086 177.314 54.0569 176.8 54.0569L176.824 54.0488Z" fill="#930934"/>
<path d="M201.726 55.3751C198.785 55.3751 196.1 54.8526 193.737 53.8157C191.422 52.8029 189.396 51.3962 187.7 49.6358C186.124 47.996 184.822 46.0749 183.833 43.9367C182.989 42.1121 182.33 40.1749 181.864 38.1573C181.43 36.3005 181.133 34.3874 180.964 32.4662C180.811 30.6978 180.731 28.9535 180.731 27.2977C180.731 24.8299 180.859 22.3381 181.1 19.8865C181.342 17.475 181.695 15.0314 182.145 12.628C182.861 8.80983 186.189 6.0688 190.039 6.0688C190.143 6.0688 190.248 6.0688 190.352 6.0688L201.421 6.49483C201.574 6.49483 201.718 6.5109 201.871 6.52698C203.133 5.73924 204.604 5.30518 206.123 5.30518H217.192C221.364 5.30518 224.836 8.49634 225.198 12.644C225.407 15.0394 225.511 17.4991 225.511 19.9588C225.511 21.3253 225.447 22.8284 225.319 24.4441C225.19 26.0759 224.981 27.7719 224.692 29.5001C224.402 31.2283 224.024 32.9968 223.558 34.7491C223.06 36.6461 222.433 38.511 221.685 40.2713C220.914 42.104 219.989 43.8564 218.952 45.472C217.763 47.3128 216.372 48.9606 214.805 50.3593C213.101 51.8865 211.163 53.1003 209.057 53.9684C206.807 54.9008 204.339 55.367 201.726 55.367V55.3751Z" fill="#930934"/>
<path d="M242.962 54.9973C240.889 54.9973 238.887 54.1935 237.392 52.7546C236.982 52.3608 236.612 51.9187 236.299 51.4524H235.696C234.321 52.7225 232.505 53.5183 230.487 53.5745L219.563 53.9041C219.483 53.9041 219.402 53.9041 219.322 53.9041C217.216 53.9041 215.19 53.0762 213.687 51.5971C212.12 50.0538 211.26 47.9478 211.292 45.7534L211.766 13.0781C211.83 8.80179 215.223 5.32929 219.491 5.16049L231.645 4.68624C231.749 4.68624 231.854 4.68624 231.958 4.68624C233.879 4.68624 235.688 5.36948 237.103 6.5511C238.606 4.79877 240.816 3.73773 243.212 3.73773H255.936C258.155 3.73773 260.277 4.65409 261.796 6.26976C263.315 7.88544 264.095 10.0638 263.958 12.2743L261.78 46.9832C261.523 51.0827 258.211 54.3301 254.111 54.507L243.332 54.9812C243.212 54.9812 243.099 54.9812 242.978 54.9812L242.962 54.9973Z" fill="#930934"/>
<path d="M257.721 54.6195C253.283 54.6195 249.682 51.0184 249.682 46.5813C249.682 42.9642 249.682 39.355 249.706 35.7619C249.723 32.1689 249.747 28.5517 249.779 24.8943C249.811 22.9812 249.819 21.1083 249.803 19.2595C249.787 17.1937 249.827 15.0797 249.931 12.9897C250.1 9.58154 252.399 6.6476 255.671 5.67498C258.042 4.96762 260.454 4.4371 262.833 4.08342C265.236 3.72974 267.728 3.54486 270.252 3.54486C271.892 3.54486 273.548 3.68151 275.179 3.94677C276.932 4.22811 278.636 4.68628 280.252 5.30523C281.915 5.94024 283.499 6.76014 284.946 7.72472C286.602 8.83399 288.057 10.1764 289.27 11.7197C290.5 13.2791 291.473 15.0556 292.164 17.0008C292.872 18.9943 293.233 21.1807 293.233 23.4957C293.233 26.0116 292.823 28.3588 292.003 30.4648C291.192 32.5547 290.05 34.4356 288.595 36.0433C287.237 37.5545 285.629 38.8486 283.821 39.8775C282.253 40.7778 280.565 41.5173 278.805 42.0719C278.138 42.2809 277.462 42.4738 276.771 42.6346V46.5653C276.771 51.0024 273.17 54.6035 268.733 54.6035H257.712L257.721 54.6195Z" fill="#930934"/>
<path d="M287.036 30.6898C282.928 30.6898 279.464 27.579 279.046 23.4635L277.583 9.0912C277.358 6.85658 278.073 4.63 279.56 2.95002C281.047 1.27003 283.169 0.289375 285.412 0.241146C285.412 0.241146 296.923 0 296.979 0C299.334 0 301.577 1.03693 303.104 2.82944C304.672 4.67019 305.323 7.1138 304.889 9.49311L302.244 23.8654C301.561 27.579 298.378 30.3201 294.6 30.4406L287.317 30.6737C287.229 30.6737 287.14 30.6737 287.052 30.6737L287.036 30.6898Z" fill="#930934"/>
<path d="M307.581 54.6195C306.231 54.6195 304.784 54.4507 303.297 54.1212C302.132 53.8639 300.942 53.5344 299.752 53.1485C298.635 52.7868 297.534 52.3849 296.489 51.9589C295.492 51.557 294.584 51.1631 293.788 50.7934C290.669 49.3384 288.828 46.0669 289.19 42.6507L290.227 32.9084C290.307 32.1769 290.484 31.4695 290.749 30.8024C290.605 30.4728 290.46 30.1432 290.331 29.7976C289.544 27.7318 289.142 25.4972 289.142 23.1661C289.142 20.0392 289.809 17.1294 291.135 14.525C292.381 12.0653 294.085 9.94325 296.191 8.207C298.193 6.55917 300.492 5.28914 303.032 4.42101C305.483 3.58504 308.048 3.16705 310.652 3.16705C311.601 3.16705 312.589 3.19921 313.578 3.27155C314.679 3.34389 315.788 3.48054 316.866 3.66542C317.951 3.8503 319.028 4.09948 320.065 4.3969C321.27 4.74254 322.428 5.1766 323.521 5.69908C326.56 7.154 328.376 10.3452 328.063 13.7051L327.162 23.3027C327.146 23.4715 327.122 23.6403 327.098 23.8091C327.87 24.9425 328.497 26.1804 328.971 27.5228C329.646 29.4359 329.984 31.5017 329.984 33.664C329.984 36.9837 329.357 40.0302 328.119 42.7069C326.865 45.4158 325.097 47.7228 322.862 49.5635C320.756 51.2998 318.296 52.61 315.547 53.454C313.047 54.2257 310.363 54.6115 307.565 54.6115L307.581 54.6195Z" fill="#930934"/>
<path d="M76.837 120.308C75.3661 120.308 73.9031 120.267 72.4884 120.187C71.0817 120.107 69.6268 119.994 68.1799 119.833C64.0322 119.391 60.9134 115.846 60.9938 111.675L62.1834 54.7401C62.2558 51.2998 64.5065 48.2935 67.786 47.2485C71.355 46.1151 75.0686 45.3033 78.8386 44.829C82.4557 44.3789 86.089 44.1538 89.658 44.1538C94.6095 44.1538 99.2716 44.9255 103.524 46.4527C107.937 48.0363 111.819 50.3673 115.075 53.3977C118.37 56.4683 120.959 60.2382 122.775 64.603C124.544 68.8793 125.444 73.6942 125.444 78.927C125.444 83.7017 124.801 88.1308 123.531 92.0856C122.253 96.0886 120.42 99.7218 118.081 102.889C115.758 106.04 112.953 108.789 109.745 111.064C106.691 113.226 103.307 115.027 99.6977 116.401C96.2091 117.735 92.4553 118.732 88.5567 119.367C84.7627 119.986 80.824 120.3 76.8451 120.3L76.837 120.308Z" fill="#930934"/>
<path d="M145.483 119.038C142.212 119.038 139.029 118.604 136.022 117.76C133.072 116.932 130.267 115.742 127.679 114.223C125.074 112.704 122.671 110.839 120.557 108.676C118.451 106.53 116.626 104.111 115.139 101.49C113.668 98.902 112.519 96.0886 111.707 93.1386C110.887 90.1403 110.469 86.9813 110.469 83.758C110.469 80.5347 110.847 77.5525 111.602 74.5623C112.358 71.5721 113.451 68.7105 114.874 66.0579C116.297 63.3973 118.033 60.9135 120.05 58.6869C122.1 56.4201 124.423 54.4347 126.971 52.7869C129.543 51.123 132.365 49.8047 135.355 48.8883C138.402 47.9479 141.641 47.4656 144.985 47.4656C150.033 47.4656 154.767 48.2774 159.036 49.8931C163.465 51.557 167.323 54.0006 170.506 57.1516C173.689 60.3026 176.173 64.1207 177.901 68.5015C179.581 72.7778 180.433 77.5365 180.433 82.6568C180.433 85.8721 180.055 89.0311 179.308 92.0374C178.56 95.0597 177.459 97.9374 176.028 100.606C174.598 103.283 172.837 105.775 170.787 108.009C168.706 110.276 166.334 112.245 163.738 113.869C161.142 115.493 158.28 116.771 155.242 117.663C152.171 118.571 148.891 119.03 145.499 119.03L145.483 119.038ZM145.202 82.2629C145.146 82.3272 145.113 82.3915 145.081 82.4799C144.993 82.7372 144.945 83.0105 144.945 83.34C144.945 83.7821 145.009 84.2242 145.146 84.6985C145.178 84.803 145.21 84.9075 145.25 84.9959C145.282 84.9236 145.314 84.8512 145.339 84.7708C145.451 84.4493 145.499 84.1278 145.499 83.7661C145.499 83.3561 145.443 82.9703 145.322 82.5925C145.282 82.4719 145.242 82.3594 145.194 82.2629H145.202Z" fill="#930934"/>
<path d="M201.783 121.923C196.614 121.923 191.743 120.967 187.306 119.078C182.877 117.189 178.994 114.536 175.747 111.184C172.532 107.865 169.992 103.918 168.191 99.4566C166.399 95.0115 165.49 90.1885 165.49 85.1245C165.49 81.4269 165.924 77.7535 166.768 74.2006C167.612 70.6638 168.85 67.2636 170.434 64.1046C172.041 60.9054 174.035 57.9232 176.35 55.2465C178.721 52.5055 181.446 50.1101 184.452 48.1247C187.483 46.1312 190.835 44.5557 194.404 43.4625C198.013 42.3533 201.887 41.7906 205.922 41.7906C207.313 41.7906 208.816 41.8469 210.392 41.9594C212.056 42.08 213.719 42.2809 215.343 42.5703C217.079 42.8757 218.8 43.3018 220.455 43.8403C222.28 44.4352 223.992 45.1907 225.552 46.091C228.22 47.6344 229.772 50.5603 229.547 53.6389L228.51 67.8022C229.635 68.1639 230.672 68.7748 231.548 69.6027C233.124 71.0898 234.032 73.1395 234.064 75.3018L234.571 103.813C234.603 105.686 233.984 107.503 232.818 108.966C230.937 111.321 228.622 113.387 225.929 115.107C223.502 116.658 220.865 117.952 218.1 118.973C215.432 119.954 212.65 120.702 209.845 121.192C207.048 121.682 204.331 121.923 201.759 121.923H201.783Z" fill="#930934"/>
<path d="M44.6361 11.776L42.4577 46.4849L31.6785 46.9592L31.775 28.6562L26.9038 43.4063H22.74L19.0023 30.2156L18.9541 45.5364L8.03015 45.866L8.5044 13.1907L20.6582 12.7165L25.4811 28.3668L31.9116 11.7679H44.6361V11.776Z" fill="black"/>
<path d="M75.7761 44.21L64.0483 45.7212L62.6256 40.3758H57.2319L56.0503 45.7212L43.993 44.5396L53.4058 13.046L66.5482 12.3868L75.768 44.21H75.7761ZM61.7816 33.1495L59.981 24.9184L58.2287 33.1495H61.7735H61.7816Z" fill="black"/>
<path d="M104.247 41.4208C103.508 42.3533 102.591 43.1651 101.506 43.8564C100.421 44.5477 99.2556 45.1264 98.0097 45.5846C96.7638 46.0428 95.4857 46.3884 94.1755 46.6135C92.8652 46.8386 91.6193 46.9591 90.4377 46.9591C88.1549 46.9591 86.0488 46.5492 84.1277 45.7293C82.2066 44.9094 80.5427 43.776 79.1521 42.3372C77.7534 40.8983 76.6683 39.1943 75.8805 37.241C75.0928 35.2877 74.6989 33.1817 74.6989 30.931C74.6989 29.2108 74.8999 27.5308 75.2937 25.883C75.6876 24.2352 76.2503 22.6838 76.9818 21.2289C77.7132 19.774 78.6055 18.4316 79.6665 17.2098C80.7195 15.988 81.9172 14.935 83.2596 14.0508C84.602 13.1666 86.0649 12.4833 87.6565 11.993C89.248 11.5027 90.9521 11.2615 92.7607 11.2615C93.4359 11.2615 94.1674 11.2856 94.9391 11.3419C95.7108 11.3982 96.4824 11.4946 97.246 11.6233C98.0097 11.7599 98.7572 11.9448 99.4807 12.1779C100.204 12.411 100.871 12.7084 101.466 13.0541L100.807 22.089C99.9228 21.7594 99.0145 21.5343 98.074 21.4138C97.1335 21.2932 96.2172 21.2369 95.3169 21.2369C94.0549 21.2369 92.8813 21.4298 91.7801 21.8157C90.6869 22.2015 89.7303 22.7562 88.9185 23.4796C88.1066 24.203 87.4636 25.0872 86.9893 26.1242C86.5151 27.1611 86.2819 28.3427 86.2819 29.6449C86.2819 30.4648 86.3945 31.2606 86.6115 32.0242C86.8285 32.7878 87.1662 33.463 87.6163 34.0578C88.0664 34.6527 88.6211 35.1269 89.2963 35.4887C89.9634 35.8504 90.7431 36.0352 91.6273 36.0352C92.2222 36.0352 92.8411 35.9549 93.4842 35.8021C94.1192 35.6414 94.6738 35.3761 95.124 34.9983L95.2204 33.1576L89.5455 33.0611L89.8268 25.9714C92.1739 25.891 94.5211 25.8267 96.8763 25.7705C99.2234 25.7142 101.587 25.6419 103.966 25.5454L104.247 41.4369V41.4208Z" fill="black"/>
<path d="M135.862 44.21L124.134 45.7212L122.711 40.3758H117.317L116.136 45.7212L104.079 44.5396L113.491 13.046L126.634 12.3868L135.854 44.21H135.862ZM121.859 33.1495L120.058 24.9184L118.306 33.1495H121.851H121.859Z" fill="black"/>
<path d="M158.553 12.4351L158.32 22.4587L151.271 22.7401L149.47 45.1586L139.495 45.6811L139.543 23.2706L132.494 23.6484L132.775 12.4914L158.545 12.4432L158.553 12.4351Z" fill="black"/>
<path d="M187.571 23.4555C187.571 24.6853 187.467 25.8026 187.25 26.7993C187.033 27.8041 186.703 28.7205 186.245 29.5564C185.787 30.3924 185.2 31.1641 184.468 31.8714C183.745 32.5788 182.869 33.2621 181.848 33.9051L187.475 43.9287L176.832 46.0106L173.191 35.9388L170.257 36.0352L169.831 45.874H159.663C159.743 42.2809 159.815 38.7039 159.888 35.143C159.96 31.5821 160.04 28.0051 160.137 24.412C160.169 22.6034 160.201 20.8029 160.233 19.0184C160.265 17.2339 160.33 15.4414 160.426 13.6247C161.527 13.2148 162.621 12.8772 163.69 12.6119C164.759 12.3467 165.836 12.1377 166.921 11.985C168.006 11.8322 169.099 11.7358 170.209 11.6795C171.318 11.6232 172.459 11.5991 173.625 11.5991C175.426 11.5991 177.162 11.8483 178.842 12.3467C180.522 12.845 182.009 13.5846 183.295 14.5813C184.581 15.578 185.626 16.8079 186.406 18.2949C187.185 19.782 187.579 21.5022 187.579 23.4715L187.571 23.4555ZM176.977 24.211C176.977 23.5519 176.888 22.941 176.704 22.3944C176.519 21.8398 176.253 21.3655 175.9 20.9636C175.546 20.5617 175.104 20.2482 174.573 20.0151C174.043 19.79 173.424 19.6695 172.717 19.6695C172.403 19.6695 172.098 19.6855 171.792 19.7257C171.495 19.7659 171.197 19.8222 170.916 19.9026L170.538 28.6964H171.109C171.784 28.6964 172.476 28.6079 173.175 28.4391C173.874 28.2623 174.509 27.997 175.064 27.6353C175.626 27.2736 176.085 26.8074 176.438 26.2367C176.792 25.666 176.969 24.9908 176.969 24.203L176.977 24.211Z" fill="black"/>
<path d="M217.473 19.9588C217.473 21.1244 217.417 22.4105 217.305 23.8091C217.192 25.2158 217.015 26.6627 216.758 28.1578C216.501 29.6529 216.179 31.1721 215.777 32.7074C215.375 34.2427 214.877 35.7217 214.274 37.1445C213.671 38.5672 212.98 39.8935 212.184 41.1314C211.388 42.3693 210.472 43.4464 209.443 44.3708C208.414 45.2952 207.257 46.0187 205.979 46.5492C204.701 47.0797 203.286 47.345 201.726 47.345C199.902 47.345 198.31 47.0475 196.96 46.4608C195.609 45.8659 194.46 45.0701 193.495 44.0734C192.531 43.0686 191.743 41.9031 191.132 40.5768C190.521 39.2425 190.039 37.8358 189.693 36.3407C189.348 34.8456 189.107 33.3263 188.97 31.775C188.833 30.2236 188.769 28.7285 188.769 27.2977C188.769 25.0872 188.881 22.8847 189.098 20.6903C189.316 18.4878 189.637 16.2934 190.047 14.107L201.116 14.533C200.69 17.0088 200.32 19.4926 200.014 21.9925C199.709 24.4924 199.556 27.0003 199.556 29.5243C199.556 29.7895 199.564 30.1915 199.588 30.722C199.612 31.2525 199.653 31.8393 199.717 32.4984C199.781 33.1495 199.87 33.8247 199.99 34.508C200.111 35.1912 200.272 35.8182 200.473 36.3889C200.673 36.9596 200.923 37.4178 201.22 37.7875C201.509 38.1493 201.855 38.3341 202.249 38.3341C202.707 38.3341 203.117 38.1171 203.479 37.683C203.841 37.249 204.162 36.6702 204.435 35.9468C204.709 35.2234 204.95 34.3874 205.159 33.4389C205.36 32.4904 205.537 31.5097 205.681 30.4808C205.826 29.46 205.939 28.4311 206.027 27.4102C206.115 26.3894 206.188 25.4328 206.236 24.5486C206.292 23.6644 206.324 22.8847 206.34 22.2095C206.357 21.5343 206.365 21.0279 206.365 20.6983C206.365 19.4685 206.348 18.2467 206.308 17.0249C206.268 15.8031 206.212 14.5893 206.131 13.3755H217.2C217.393 15.5539 217.481 17.7564 217.481 19.999L217.473 19.9588Z" fill="black"/>
<path d="M255.92 11.776L253.742 46.4849L242.962 46.9592L243.059 28.6562L238.188 43.4063H234.024L230.286 30.2156L230.238 45.5364L219.314 45.866L219.788 13.1907L231.942 12.7165L236.765 28.3668L243.196 11.7679H255.92V11.776Z" fill="black"/>
<path d="M285.195 23.5037C285.195 25.031 284.97 26.3894 284.512 27.571C284.054 28.7526 283.427 29.7815 282.631 30.6657C281.835 31.5499 280.903 32.2975 279.826 32.9084C278.748 33.5193 277.607 34.0257 276.385 34.4115C275.163 34.7974 273.901 35.0787 272.591 35.2636C271.281 35.4485 269.995 35.5449 268.741 35.561V46.5814H257.721C257.721 42.9722 257.721 39.3791 257.745 35.8021C257.761 32.2252 257.785 28.616 257.817 24.9747C257.849 23.0536 257.857 21.1324 257.841 19.2033C257.825 17.2821 257.865 15.3449 257.962 13.3836C259.979 12.7808 261.997 12.3387 264.014 12.0332C266.032 11.7358 268.114 11.5831 270.26 11.5831C271.474 11.5831 272.688 11.6795 273.901 11.8805C275.115 12.0814 276.281 12.3869 277.39 12.8129C278.499 13.2389 279.536 13.7695 280.485 14.4125C281.441 15.0475 282.261 15.8112 282.952 16.6954C283.644 17.5796 284.19 18.5843 284.592 19.7097C284.994 20.835 285.195 22.1051 285.195 23.5037ZM274.697 24.3075C274.697 23.2867 274.384 22.4829 273.765 21.9041C273.146 21.3254 272.334 21.044 271.337 21.044C271.008 21.044 270.662 21.0681 270.308 21.1244C269.955 21.1807 269.617 21.245 269.304 21.3254L269.022 28.2302C269.239 28.2623 269.456 28.2784 269.657 28.2784H270.292C270.863 28.2784 271.41 28.1819 271.932 27.9971C272.463 27.8041 272.929 27.5389 273.339 27.1852C273.749 26.8315 274.078 26.4135 274.319 25.9312C274.561 25.449 274.689 24.9104 274.689 24.3075H274.697Z" fill="black"/>
<path d="M296.971 8.03821L294.326 22.4105L287.044 22.6436L285.581 8.27132L296.979 8.03821H296.971Z" fill="black"/>
<path d="M321.962 33.672C321.962 35.8343 321.584 37.7152 320.836 39.3309C320.089 40.9466 319.06 42.2889 317.766 43.3661C316.464 44.4351 314.944 45.239 313.2 45.7775C311.456 46.3161 309.583 46.5813 307.581 46.5813C306.81 46.5813 305.966 46.4768 305.041 46.2759C304.117 46.0749 303.185 45.8177 302.236 45.5042C301.288 45.1988 300.379 44.8692 299.503 44.5075C298.627 44.1538 297.855 43.8162 297.172 43.5027L298.209 33.7604C299.551 34.5642 301.038 35.1751 302.662 35.5931C304.294 36.0111 305.901 36.2201 307.477 36.2201C307.774 36.2201 308.136 36.2121 308.562 36.1879C308.988 36.1638 309.39 36.0915 309.784 35.979C310.17 35.8584 310.499 35.6815 310.765 35.4484C311.03 35.2153 311.167 34.8697 311.167 34.4276C311.167 34.1302 311.07 33.8729 310.885 33.6559C310.692 33.4389 310.451 33.2701 310.154 33.1334C309.856 32.9968 309.519 32.9003 309.141 32.828C308.763 32.7556 308.393 32.7074 308.032 32.6753C307.67 32.6431 307.332 32.627 307.011 32.627H306.255C304.897 32.627 303.667 32.3939 302.558 31.9197C301.448 31.4454 300.492 30.7863 299.696 29.9423C298.9 29.0983 298.281 28.1015 297.839 26.936C297.397 25.7785 297.18 24.5245 297.18 23.1661C297.18 21.3093 297.558 19.6373 298.305 18.1663C299.053 16.6953 300.058 15.4414 301.312 14.4044C302.566 13.3756 304.004 12.5798 305.628 12.0251C307.252 11.4705 308.932 11.1972 310.668 11.1972C311.44 11.1972 312.236 11.2213 313.055 11.2776C313.875 11.3339 314.687 11.4303 315.499 11.575C316.311 11.7197 317.107 11.8965 317.878 12.1216C318.65 12.3386 319.382 12.62 320.081 12.9495L319.181 22.5471C318.112 22.1854 316.986 21.88 315.813 21.6388C314.639 21.3977 313.49 21.2691 312.372 21.2691C312.163 21.2691 311.906 21.2691 311.576 21.2851C311.255 21.2851 310.917 21.3173 310.556 21.3575C310.202 21.3977 309.84 21.4539 309.479 21.5343C309.117 21.6147 308.795 21.7192 308.506 21.8558C308.225 21.9925 307.991 22.1693 307.823 22.3864C307.646 22.6034 307.573 22.8687 307.59 23.1661C307.606 23.5117 307.734 23.7931 307.983 24.002C308.233 24.211 308.546 24.3798 308.932 24.5004C309.318 24.621 309.744 24.7014 310.21 24.7496C310.676 24.7978 311.134 24.8219 311.593 24.83C312.051 24.83 312.477 24.83 312.871 24.83C313.264 24.83 313.586 24.83 313.843 24.8621C315.105 24.9425 316.239 25.2078 317.251 25.666C318.256 26.1241 319.116 26.727 319.816 27.4906C320.515 28.2462 321.053 29.1465 321.423 30.1995C321.793 31.2445 321.978 32.402 321.978 33.664L321.962 33.672Z" fill="black"/>
<path d="M117.398 78.927C117.398 82.8899 116.891 86.4588 115.871 89.6419C114.85 92.8251 113.435 95.6545 111.61 98.1303C109.786 100.606 107.615 102.736 105.099 104.513C102.583 106.297 99.8263 107.76 96.8281 108.901C93.8298 110.043 90.6386 110.895 87.2626 111.45C83.8785 112.004 80.4141 112.277 76.8451 112.277C75.5188 112.277 74.2166 112.245 72.9385 112.173C71.6685 112.101 70.3663 111.996 69.032 111.851L70.2216 54.9169C73.3324 53.9282 76.5316 53.2289 79.8273 52.819C83.1229 52.409 86.3945 52.2081 89.65 52.2081C93.6932 52.2081 97.4149 52.819 100.807 54.0327C104.199 55.2465 107.125 56.9988 109.593 59.2897C112.052 61.5806 113.965 64.3779 115.34 67.6896C116.715 71.0014 117.398 74.7472 117.398 78.9351V78.927ZM100.003 81.6439C100.027 80.1167 99.8665 78.6457 99.5128 77.231C99.1591 75.8162 98.5804 74.5623 97.7766 73.4771C96.9727 72.392 95.9439 71.5078 94.6979 70.8486C93.452 70.1815 91.9649 69.8198 90.2448 69.7635L88.5487 96.0645C90.2448 95.8072 91.7881 95.2526 93.1707 94.3925C94.5533 93.5324 95.7509 92.4714 96.7557 91.2094C97.7605 89.9474 98.5402 88.5487 99.0868 87.0054C99.6414 85.4621 99.9388 83.8705 99.9951 82.2307V81.6359L100.003 81.6439Z" fill="black"/>
<path d="M172.379 82.6568C172.379 85.229 172.082 87.7128 171.487 90.1001C170.892 92.4875 170.04 94.7301 168.923 96.8281C167.805 98.918 166.447 100.839 164.847 102.575C163.248 104.312 161.455 105.807 159.462 107.053C157.468 108.299 155.298 109.263 152.951 109.963C150.604 110.654 148.112 110.999 145.483 110.999C142.855 110.999 140.516 110.678 138.209 110.027C135.902 109.376 133.747 108.467 131.738 107.294C129.728 106.12 127.912 104.706 126.288 103.05C124.664 101.394 123.274 99.553 122.132 97.5355C120.991 95.5098 120.099 93.3395 119.464 91.0245C118.829 88.7095 118.507 86.29 118.507 83.766C118.507 81.242 118.804 78.8949 119.399 76.5317C119.994 74.1684 120.846 71.9419 121.963 69.8519C123.081 67.762 124.431 65.8328 126.015 64.0805C127.598 62.3282 129.375 60.817 131.336 59.5389C133.305 58.2689 135.427 57.2802 137.718 56.5728C140.009 55.8655 142.429 55.5118 144.977 55.5118C149.076 55.5118 152.814 56.1468 156.198 57.4249C159.574 58.6949 162.46 60.5115 164.855 62.8748C167.243 65.238 169.099 68.0916 170.41 71.4435C171.728 74.7954 172.379 78.5332 172.379 82.6648V82.6568ZM153.546 83.758C153.546 82.5442 153.369 81.3626 153.015 80.2132C152.661 79.0717 152.147 78.0509 151.464 77.1586C150.788 76.2664 149.944 75.543 148.94 74.9964C147.935 74.4417 146.785 74.1684 145.483 74.1684C144.181 74.1684 142.967 74.4096 141.922 74.8919C140.877 75.3742 139.977 76.0333 139.23 76.8612C138.482 77.6972 137.903 78.6698 137.509 79.7871C137.115 80.9044 136.915 82.086 136.915 83.332C136.915 84.5779 137.083 85.7113 137.421 86.8929C137.759 88.0825 138.273 89.1597 138.948 90.1162C139.623 91.0808 140.467 91.8525 141.472 92.4473C142.477 93.0421 143.642 93.3395 144.969 93.3395C146.295 93.3395 147.493 93.0743 148.554 92.5518C149.615 92.0293 150.515 91.3219 151.247 90.4297C151.978 89.5375 152.549 88.5166 152.943 87.3511C153.337 86.1936 153.537 84.9878 153.537 83.7419L153.546 83.758Z" fill="black"/>
<path d="M226.556 103.958C225.23 105.63 223.59 107.085 221.637 108.331C219.684 109.577 217.594 110.606 215.359 111.425C213.125 112.245 210.834 112.864 208.487 113.274C206.139 113.684 203.905 113.885 201.783 113.885C197.683 113.885 193.905 113.146 190.457 111.683C187.009 110.212 184.026 108.186 181.527 105.598C179.027 103.009 177.065 99.963 175.651 96.4584C174.236 92.9537 173.529 89.1758 173.529 85.1325C173.529 82.0539 173.882 79.0315 174.59 76.0735C175.297 73.1154 176.31 70.3342 177.62 67.7138C178.938 65.1014 180.538 62.6899 182.435 60.5035C184.332 58.3091 186.478 56.4201 188.881 54.8366C191.285 53.2531 193.913 52.0232 196.775 51.1471C199.629 50.2709 202.683 49.8288 205.939 49.8288C207.152 49.8288 208.454 49.877 209.845 49.9735C211.228 50.0699 212.61 50.2387 213.985 50.4799C215.359 50.721 216.694 51.0506 217.996 51.4766C219.298 51.9026 220.488 52.4251 221.557 53.0441L220.367 69.2491C218.784 68.6542 217.152 68.2523 215.464 68.0433C213.784 67.8343 212.136 67.7218 210.52 67.7218C208.253 67.7218 206.139 68.0675 204.178 68.7587C202.209 69.45 200.505 70.4468 199.042 71.7489C197.587 73.0511 196.429 74.6347 195.585 76.4995C194.733 78.3644 194.315 80.4704 194.315 82.8175C194.315 84.2885 194.516 85.7113 194.91 87.0778C195.304 88.4523 195.907 89.6661 196.711 90.7271C197.514 91.7882 198.519 92.6402 199.725 93.2913C200.931 93.9424 202.321 94.2639 203.905 94.2639C204.982 94.2639 206.091 94.1192 207.233 93.8379C208.382 93.5566 209.363 93.0743 210.183 92.3991L210.351 89.0873L200.167 88.9185L200.673 76.1941C204.885 76.0494 209.098 75.9288 213.318 75.8323C217.53 75.7359 221.774 75.5992 226.042 75.4304L226.548 103.942L226.556 103.958Z" fill="black"/>
<path d="M43.0285 13.3836L40.8501 48.0925L30.0709 48.5668L30.1674 30.2638L25.2962 45.0139H21.1324L17.3947 31.8232L17.3465 47.144L6.42255 47.4736L6.8968 14.7983L19.0505 14.3241L23.8735 29.9744L30.304 13.3755H43.0285V13.3836Z" fill="#C3A7B6"/>
<path d="M74.1685 45.8177L62.4407 47.3288L61.018 41.9834H55.6243L54.4427 47.3288L42.3854 46.1472L51.7982 14.6536L64.9406 13.9944L74.1604 45.8177H74.1685ZM60.174 34.7571L58.3734 26.526L56.6211 34.7571H60.1659H60.174Z" fill="#C3A7B6"/>
<path d="M102.64 43.0284C101.9 43.9609 100.984 44.7727 99.8987 45.464C98.8136 46.1553 97.648 46.734 96.4021 47.1922C95.1562 47.6504 93.8781 47.996 92.5679 48.2211C91.2577 48.4462 90.0117 48.5668 88.8301 48.5668C86.5473 48.5668 84.4413 48.1568 82.5201 47.3369C80.599 46.517 78.9351 45.3836 77.5445 43.9448C76.1459 42.506 75.0607 40.8019 74.273 38.8486C73.4852 36.8953 73.0913 34.7893 73.0913 32.5386C73.0913 30.8184 73.2923 29.1384 73.6862 27.4906C74.08 25.8428 74.6427 24.2914 75.3742 22.8365C76.1057 21.3816 76.9979 20.0392 78.0589 18.8174C79.1119 17.5956 80.3096 16.5426 81.652 15.6584C82.9944 14.7742 84.4573 14.0909 86.0489 13.6006C87.6405 13.1103 89.3446 12.8691 91.1532 12.8691C91.8284 12.8691 92.5598 12.8933 93.3315 12.9495C94.1032 13.0058 94.8748 13.1022 95.6385 13.2309C96.4021 13.3675 97.1497 13.5524 97.8731 13.7855C98.5965 14.0186 99.2637 14.316 99.8585 14.6617L99.1994 23.6966C98.3152 23.367 97.4069 23.142 96.4664 23.0214C95.5259 22.9008 94.6096 22.8445 93.7093 22.8445C92.4473 22.8445 91.2737 23.0375 90.1725 23.4233C89.0793 23.8091 88.1228 24.3638 87.3109 25.0872C86.499 25.8106 85.856 26.6948 85.3817 27.7318C84.9075 28.7687 84.6744 29.9503 84.6744 31.2525C84.6744 32.0724 84.7869 32.8682 85.0039 33.6318C85.221 34.3954 85.5586 35.0706 86.0087 35.6655C86.4589 36.2603 87.0135 36.7345 87.6887 37.0963C88.3559 37.458 89.1356 37.6429 90.0198 37.6429C90.6146 37.6429 91.2335 37.5625 91.8766 37.4097C92.5116 37.249 93.0662 36.9837 93.5164 36.6059L93.6128 34.7652L87.9379 34.6687L88.2192 27.579C90.5664 27.4987 92.9135 27.4343 95.2687 27.3781C97.6159 27.3218 99.9791 27.2495 102.358 27.153L102.64 43.0445V43.0284Z" fill="#C3A7B6"/>
<path d="M134.254 45.8177L122.526 47.3288L121.103 41.9834H115.71L114.528 47.3288L102.471 46.1472L111.884 14.6536L125.026 13.9944L134.246 45.8177H134.254ZM120.251 34.7571L118.451 26.526L116.699 34.7571H120.243H120.251Z" fill="#C3A7B6"/>
<path d="M156.946 14.0427L156.713 24.0664L149.663 24.3477L147.863 46.7662L137.887 47.2887L137.935 24.8782L130.886 25.256L131.167 14.099L156.938 14.0508L156.946 14.0427Z" fill="#C3A7B6"/>
<path d="M185.964 25.0631C185.964 26.2929 185.859 27.4102 185.642 28.4069C185.425 29.4117 185.096 30.3281 184.637 31.1641C184.179 32 183.592 32.7717 182.861 33.4791C182.137 34.1864 181.261 34.8697 180.24 35.5127L185.867 45.5363L175.225 47.6182L171.583 37.5464L168.649 37.6428L168.223 47.4816H158.055C158.135 43.8885 158.208 40.3115 158.28 36.7506C158.352 33.1897 158.433 29.6127 158.529 26.0196C158.561 24.211 158.594 22.4105 158.626 20.626C158.658 18.8415 158.722 17.049 158.819 15.2324C159.92 14.8224 161.013 14.4848 162.082 14.2195C163.151 13.9543 164.228 13.7453 165.314 13.5926C166.399 13.4398 167.492 13.3434 168.601 13.2871C169.71 13.2308 170.852 13.2067 172.017 13.2067C173.818 13.2067 175.554 13.4559 177.234 13.9543C178.914 14.4526 180.401 15.1922 181.687 16.1889C182.973 17.1856 184.018 18.4155 184.798 19.9025C185.578 21.3896 185.972 23.1098 185.972 25.0791L185.964 25.0631ZM175.369 25.8187C175.369 25.1595 175.281 24.5486 175.096 24.002C174.911 23.4474 174.646 22.9731 174.292 22.5712C173.939 22.1693 173.496 21.8558 172.966 21.6227C172.435 21.3976 171.816 21.2771 171.109 21.2771C170.796 21.2771 170.49 21.2931 170.185 21.3333C169.887 21.3735 169.59 21.4298 169.309 21.5102L168.931 30.304H169.501C170.177 30.304 170.868 30.2155 171.567 30.0467C172.267 29.8699 172.902 29.6046 173.456 29.2429C174.019 28.8812 174.477 28.415 174.831 27.8443C175.184 27.2736 175.361 26.5984 175.361 25.8106L175.369 25.8187Z" fill="#C3A7B6"/>
<path d="M215.866 21.5664C215.866 22.732 215.809 24.0181 215.697 25.4167C215.584 26.8234 215.408 28.2703 215.15 29.7654C214.893 31.2605 214.572 32.7797 214.17 34.315C213.768 35.8503 213.269 37.3293 212.667 38.7521C212.064 40.1749 211.372 41.5012 210.577 42.739C209.781 43.9769 208.864 45.054 207.836 45.9784C206.807 46.9028 205.649 47.6263 204.371 48.1568C203.093 48.6873 201.678 48.9526 200.119 48.9526C198.294 48.9526 196.703 48.6551 195.352 48.0684C194.002 47.4735 192.852 46.6778 191.888 45.681C190.923 44.6762 190.135 43.5107 189.525 42.1844C188.914 40.8501 188.431 39.4434 188.086 37.9483C187.74 36.4532 187.499 34.9339 187.362 33.3826C187.226 31.8312 187.161 30.3361 187.161 28.9053C187.161 26.6948 187.274 24.4923 187.491 22.2979C187.708 20.0954 188.029 17.901 188.439 15.7146L199.508 16.1407C199.082 18.6164 198.712 21.1002 198.407 23.6001C198.101 26.1 197.949 28.6079 197.949 31.1319C197.949 31.3971 197.957 31.7991 197.981 32.3296C198.005 32.8601 198.045 33.4469 198.109 34.106C198.174 34.7571 198.262 35.4323 198.383 36.1156C198.503 36.7988 198.664 37.4258 198.865 37.9965C199.066 38.5672 199.315 39.0254 199.612 39.3951C199.902 39.7569 200.247 39.9417 200.641 39.9417C201.1 39.9417 201.509 39.7247 201.871 39.2907C202.233 38.8566 202.554 38.2778 202.828 37.5544C203.101 36.831 203.342 35.995 203.551 35.0465C203.752 34.098 203.929 33.1173 204.074 32.0884C204.218 31.0676 204.331 30.0387 204.419 29.0178C204.508 27.997 204.58 27.0404 204.628 26.1562C204.685 25.272 204.717 24.4923 204.733 23.8171C204.749 23.1419 204.757 22.6355 204.757 22.3059C204.757 21.0761 204.741 19.8543 204.701 18.6325C204.66 17.4107 204.604 16.1969 204.524 14.9832H215.592C215.785 17.1615 215.874 19.364 215.874 21.6066L215.866 21.5664Z" fill="#C3A7B6"/>
<path d="M254.312 13.3836L252.134 48.0925L241.355 48.5668L241.451 30.2638L236.58 45.0139H232.416L228.679 31.8232L228.63 47.144L217.706 47.4736L218.181 14.7983L230.334 14.3241L235.157 29.9744L241.588 13.3755H254.312V13.3836Z" fill="#C3A7B6"/>
<path d="M283.588 25.1113C283.588 26.6386 283.362 27.997 282.904 29.1786C282.446 30.3603 281.819 31.3891 281.023 32.2733C280.228 33.1575 279.295 33.9051 278.218 34.516C277.141 35.1269 275.999 35.6333 274.778 36.0191C273.556 36.405 272.294 36.6863 270.984 36.8712C269.673 37.0561 268.387 37.1525 267.133 37.1686V48.189H256.113C256.113 44.5798 256.113 40.9867 256.137 37.4098C256.153 33.8328 256.177 30.2236 256.209 26.5823C256.242 24.6612 256.25 22.74 256.234 20.8109C256.217 18.8898 256.258 16.9525 256.354 14.9912C258.372 14.3884 260.389 13.9463 262.407 13.6408C264.424 13.3434 266.506 13.1907 268.653 13.1907C269.866 13.1907 271.08 13.2871 272.294 13.4881C273.508 13.689 274.673 13.9945 275.782 14.4205C276.892 14.8465 277.929 15.3771 278.877 16.0201C279.834 16.6551 280.654 17.4188 281.345 18.303C282.036 19.1872 282.583 20.1919 282.985 21.3173C283.387 22.4426 283.588 23.7127 283.588 25.1113ZM273.09 25.9151C273.09 24.8943 272.776 24.0905 272.157 23.5117C271.538 22.933 270.726 22.6516 269.73 22.6516C269.4 22.6516 269.054 22.6757 268.701 22.732C268.347 22.7883 268.01 22.8526 267.696 22.933L267.415 29.8378C267.632 29.8699 267.849 29.886 268.05 29.886H268.685C269.255 29.886 269.802 29.7895 270.324 29.6047C270.855 29.4118 271.321 29.1465 271.731 28.7928C272.141 28.4391 272.471 28.0211 272.712 27.5388C272.953 27.0566 273.082 26.518 273.082 25.9151H273.09Z" fill="#C3A7B6"/>
<path d="M295.363 9.64581L292.719 24.0181L285.436 24.2512L283.973 9.87892L295.371 9.64581H295.363Z" fill="#C3A7B6"/>
<path d="M320.354 35.2796C320.354 37.4419 319.976 39.3228 319.229 40.9385C318.481 42.5542 317.452 43.8965 316.158 44.9737C314.856 46.0427 313.337 46.8466 311.593 47.3851C309.848 47.9237 307.975 48.1889 305.974 48.1889C305.202 48.1889 304.358 48.0844 303.434 47.8835C302.509 47.6825 301.577 47.4253 300.628 47.1118C299.68 46.8064 298.772 46.4768 297.895 46.1151C297.019 45.7614 296.248 45.4238 295.564 45.1103L296.601 35.368C297.944 36.1718 299.431 36.7827 301.054 37.2007C302.686 37.6187 304.294 37.8277 305.869 37.8277C306.167 37.8277 306.529 37.8197 306.955 37.7956C307.381 37.7714 307.782 37.6991 308.176 37.5866C308.562 37.466 308.892 37.2891 309.157 37.056C309.422 36.8229 309.559 36.4773 309.559 36.0352C309.559 35.7378 309.462 35.4806 309.278 35.2635C309.085 35.0465 308.844 34.8777 308.546 34.741C308.249 34.6044 307.911 34.5079 307.533 34.4356C307.155 34.3632 306.786 34.315 306.424 34.2829C306.062 34.2507 305.725 34.2346 305.403 34.2346H304.648C303.289 34.2346 302.059 34.0015 300.95 33.5273C299.841 33.053 298.884 32.3939 298.088 31.5499C297.293 30.7059 296.674 29.7091 296.232 28.5436C295.789 27.3861 295.572 26.1321 295.572 24.7737C295.572 22.9169 295.95 21.2449 296.698 19.7739C297.445 18.3029 298.45 17.049 299.704 16.012C300.958 14.9832 302.397 14.1874 304.021 13.6327C305.644 13.0781 307.324 12.8048 309.061 12.8048C309.832 12.8048 310.628 12.8289 311.448 12.8852C312.268 12.9415 313.08 13.0379 313.891 13.1826C314.703 13.3273 315.499 13.5041 316.271 13.7292C317.042 13.9462 317.774 14.2276 318.473 14.5571L317.573 24.1547C316.504 23.793 315.379 23.4876 314.205 23.2464C313.031 23.0053 311.882 22.8767 310.765 22.8767C310.556 22.8767 310.298 22.8767 309.969 22.8927C309.647 22.8927 309.31 22.9249 308.948 22.9651C308.594 23.0053 308.233 23.0615 307.871 23.1419C307.509 23.2223 307.188 23.3268 306.898 23.4635C306.617 23.6001 306.384 23.7769 306.215 23.994C306.038 24.211 305.966 24.4763 305.982 24.7737C305.998 25.1193 306.127 25.4007 306.376 25.6097C306.625 25.8186 306.938 25.9874 307.324 26.108C307.71 26.2286 308.136 26.309 308.602 26.3572C309.069 26.4054 309.527 26.4295 309.985 26.4376C310.443 26.4376 310.869 26.4376 311.263 26.4376C311.657 26.4376 311.978 26.4376 312.236 26.4697C313.498 26.5501 314.631 26.8154 315.644 27.2736C316.649 27.7317 317.509 28.3346 318.208 29.0982C318.907 29.8538 319.446 30.7541 319.816 31.8071C320.185 32.8521 320.37 34.0096 320.37 35.2716L320.354 35.2796Z" fill="#C3A7B6"/>
<path d="M115.79 80.5346C115.79 84.4975 115.284 88.0664 114.263 91.2495C113.242 94.4327 111.827 97.2621 110.003 99.7379C108.178 102.214 106.008 104.344 103.492 106.12C100.976 107.905 98.2187 109.368 95.2205 110.509C92.2222 111.65 89.031 112.503 85.655 113.057C82.2709 113.612 78.8065 113.885 75.2375 113.885C73.9112 113.885 72.609 113.853 71.3309 113.781C70.0609 113.708 68.7587 113.604 67.4244 113.459L68.614 56.5245C71.7248 55.5358 74.924 54.8365 78.2197 54.4266C81.5153 54.0166 84.7869 53.8157 88.0423 53.8157C92.0856 53.8157 95.8072 54.4266 99.1994 55.6403C102.591 56.8541 105.517 58.6064 107.985 60.8973C110.445 63.1882 112.358 65.9855 113.732 69.2972C115.107 72.609 115.79 76.3548 115.79 80.5427V80.5346ZM98.3955 83.2515C98.4197 81.7243 98.2589 80.2533 97.9052 78.8386C97.5515 77.4239 96.9728 76.1699 96.169 75.0847C95.3651 73.9996 94.3363 73.1154 93.0903 72.4562C91.8444 71.7891 90.3573 71.4274 88.6372 71.3711L86.9411 97.6721C88.6372 97.4148 90.1805 96.8602 91.5631 96.0001C92.9456 95.14 94.1433 94.079 95.1481 92.817C96.1529 91.555 96.9326 90.1563 97.4792 88.613C98.0338 87.0697 98.3312 85.4781 98.3875 83.8383V83.2435L98.3955 83.2515Z" fill="#C3A7B6"/>
<path d="M170.771 84.2644C170.771 86.8366 170.474 89.3204 169.879 91.7077C169.284 94.0951 168.432 96.3377 167.315 98.4357C166.198 100.526 164.839 102.447 163.24 104.183C161.64 105.919 159.848 107.414 157.854 108.66C155.861 109.906 153.69 110.871 151.343 111.57C148.996 112.261 146.504 112.607 143.876 112.607C141.247 112.607 138.908 112.286 136.601 111.634C134.294 110.983 132.14 110.075 130.13 108.901C128.121 107.728 126.304 106.313 124.68 104.657C123.057 103.001 121.666 101.161 120.525 99.1431C119.383 97.1174 118.491 94.9471 117.856 92.6321C117.221 90.3171 116.899 87.8976 116.899 85.3736C116.899 82.8496 117.197 80.5025 117.792 78.1393C118.387 75.776 119.239 73.5495 120.356 71.4595C121.473 69.3696 122.824 67.4404 124.407 65.6881C125.991 63.9358 127.767 62.4246 129.728 61.1465C131.698 59.8765 133.82 58.8878 136.111 58.1804C138.402 57.4731 140.821 57.1194 143.369 57.1194C147.469 57.1194 151.206 57.7544 154.591 59.0325C157.967 60.3025 160.852 62.1191 163.248 64.4824C165.635 66.8456 167.492 69.6992 168.802 73.0511C170.12 76.403 170.771 80.1408 170.771 84.2724V84.2644ZM151.938 85.3656C151.938 84.1518 151.761 82.9702 151.407 81.8208C151.054 80.6793 150.539 79.6585 149.856 78.7662C149.181 77.874 148.337 77.1506 147.332 76.604C146.327 76.0493 145.178 75.776 143.876 75.776C142.573 75.776 141.36 76.0172 140.315 76.4995C139.27 76.9818 138.369 77.6409 137.622 78.4688C136.874 79.3048 136.296 80.2774 135.902 81.3947C135.508 82.512 135.307 83.6937 135.307 84.9396C135.307 86.1855 135.476 87.3189 135.813 88.5005C136.151 89.6901 136.665 90.7673 137.341 91.7238C138.016 92.6884 138.86 93.4601 139.865 94.0549C140.869 94.6497 142.035 94.9471 143.361 94.9471C144.687 94.9471 145.885 94.6819 146.946 94.1594C148.007 93.6369 148.908 92.9295 149.639 92.0373C150.37 91.1451 150.941 90.1242 151.335 88.9587C151.729 87.8012 151.93 86.5954 151.93 85.3495L151.938 85.3656Z" fill="#C3A7B6"/>
<path d="M224.949 105.566C223.623 107.238 221.983 108.692 220.029 109.938C218.076 111.184 215.986 112.213 213.752 113.033C211.517 113.853 209.226 114.472 206.879 114.882C204.532 115.292 202.297 115.493 200.175 115.493C196.076 115.493 192.298 114.753 188.849 113.29C185.401 111.819 182.419 109.794 179.919 107.205C177.419 104.617 175.458 101.571 174.043 98.066C172.628 94.5613 171.921 90.7834 171.921 86.7401C171.921 83.6615 172.275 80.6392 172.982 77.6811C173.689 74.723 174.702 71.9418 176.012 69.3214C177.331 66.709 178.93 64.2975 180.827 62.1111C182.724 59.9167 184.87 58.0277 187.274 56.4442C189.677 54.8607 192.306 53.6308 195.167 52.7547C198.021 51.8785 201.075 51.4364 204.331 51.4364C205.545 51.4364 206.847 51.4846 208.237 51.5811C209.62 51.6775 211.003 51.8464 212.377 52.0875C213.752 52.3286 215.086 52.6582 216.388 53.0842C217.69 53.5103 218.88 54.0327 219.949 54.6517L218.759 70.8567C217.176 70.2618 215.544 69.8599 213.856 69.6509C212.176 69.442 210.528 69.3294 208.913 69.3294C206.646 69.3294 204.532 69.6751 202.571 70.3663C200.601 71.0576 198.897 72.0544 197.434 73.3566C195.979 74.6587 194.822 76.2423 193.978 78.1071C193.126 79.972 192.708 82.078 192.708 84.4251C192.708 85.8961 192.909 87.3189 193.302 88.6854C193.696 90.0599 194.299 91.2737 195.103 92.3347C195.907 93.3958 196.912 94.2478 198.117 94.8989C199.323 95.55 200.714 95.8715 202.297 95.8715C203.374 95.8715 204.484 95.7268 205.625 95.4455C206.774 95.1642 207.755 94.6819 208.575 94.0067L208.744 90.6949L198.559 90.5261L199.066 77.8017C203.278 77.657 207.49 77.5364 211.71 77.44C215.922 77.3435 220.166 77.2068 224.434 77.038L224.941 105.55L224.949 105.566Z" fill="#C3A7B6"/>
<path d="M44.6361 11.776L42.4577 46.4849L31.6785 46.9592L31.775 28.6562L26.9038 43.4063H22.74L19.0023 30.2156L18.9541 45.5364L8.03015 45.866L8.5044 13.1907L20.6582 12.7165L25.4811 28.3668L31.9116 11.7679H44.6361V11.776Z" fill="white"/>
<path d="M75.7761 44.21L64.0483 45.7212L62.6256 40.3758H57.2319L56.0503 45.7212L43.993 44.5396L53.4058 13.046L66.5482 12.3868L75.768 44.21H75.7761ZM61.7816 33.1495L59.981 24.9184L58.2287 33.1495H61.7735H61.7816Z" fill="white"/>
<path d="M104.247 41.4208C103.508 42.3533 102.591 43.1651 101.506 43.8564C100.421 44.5477 99.2556 45.1264 98.0097 45.5846C96.7638 46.0428 95.4857 46.3884 94.1755 46.6135C92.8652 46.8386 91.6193 46.9591 90.4377 46.9591C88.1549 46.9591 86.0488 46.5492 84.1277 45.7293C82.2066 44.9094 80.5427 43.776 79.1521 42.3372C77.7534 40.8983 76.6683 39.1943 75.8805 37.241C75.0928 35.2877 74.6989 33.1817 74.6989 30.931C74.6989 29.2108 74.8999 27.5308 75.2937 25.883C75.6876 24.2352 76.2503 22.6838 76.9818 21.2289C77.7132 19.774 78.6055 18.4316 79.6665 17.2098C80.7195 15.988 81.9172 14.935 83.2596 14.0508C84.602 13.1666 86.0649 12.4833 87.6565 11.993C89.248 11.5027 90.9521 11.2615 92.7607 11.2615C93.4359 11.2615 94.1674 11.2856 94.9391 11.3419C95.7108 11.3982 96.4824 11.4946 97.246 11.6233C98.0097 11.7599 98.7572 11.9448 99.4807 12.1779C100.204 12.411 100.871 12.7084 101.466 13.0541L100.807 22.089C99.9228 21.7594 99.0145 21.5343 98.074 21.4138C97.1335 21.2932 96.2172 21.2369 95.3169 21.2369C94.0549 21.2369 92.8813 21.4298 91.7801 21.8157C90.6869 22.2015 89.7303 22.7562 88.9185 23.4796C88.1066 24.203 87.4636 25.0872 86.9893 26.1242C86.5151 27.1611 86.2819 28.3427 86.2819 29.6449C86.2819 30.4648 86.3945 31.2606 86.6115 32.0242C86.8285 32.7878 87.1662 33.463 87.6163 34.0578C88.0664 34.6527 88.6211 35.1269 89.2963 35.4887C89.9634 35.8504 90.7431 36.0352 91.6273 36.0352C92.2222 36.0352 92.8411 35.9549 93.4842 35.8021C94.1192 35.6414 94.6738 35.3761 95.124 34.9983L95.2204 33.1576L89.5455 33.0611L89.8268 25.9714C92.1739 25.891 94.5211 25.8267 96.8763 25.7705C99.2234 25.7142 101.587 25.6419 103.966 25.5454L104.247 41.4369V41.4208Z" fill="white"/>
<path d="M135.862 44.21L124.134 45.7212L122.711 40.3758H117.317L116.136 45.7212L104.079 44.5396L113.491 13.046L126.634 12.3868L135.854 44.21H135.862ZM121.859 33.1495L120.058 24.9184L118.306 33.1495H121.851H121.859Z" fill="white"/>
<path d="M158.553 12.4351L158.32 22.4587L151.271 22.7401L149.47 45.1586L139.495 45.6811L139.543 23.2706L132.494 23.6484L132.775 12.4914L158.545 12.4432L158.553 12.4351Z" fill="white"/>
<path d="M187.571 23.4555C187.571 24.6853 187.467 25.8026 187.25 26.7993C187.033 27.8041 186.703 28.7205 186.245 29.5564C185.787 30.3924 185.2 31.1641 184.468 31.8714C183.745 32.5788 182.869 33.2621 181.848 33.9051L187.475 43.9287L176.832 46.0106L173.191 35.9388L170.257 36.0352L169.831 45.874H159.663C159.743 42.2809 159.815 38.7039 159.888 35.143C159.96 31.5821 160.04 28.0051 160.137 24.412C160.169 22.6034 160.201 20.8029 160.233 19.0184C160.265 17.2339 160.33 15.4414 160.426 13.6247C161.527 13.2148 162.621 12.8772 163.69 12.6119C164.759 12.3467 165.836 12.1377 166.921 11.985C168.006 11.8322 169.099 11.7358 170.209 11.6795C171.318 11.6232 172.459 11.5991 173.625 11.5991C175.426 11.5991 177.162 11.8483 178.842 12.3467C180.522 12.845 182.009 13.5846 183.295 14.5813C184.581 15.578 185.626 16.8079 186.406 18.2949C187.185 19.782 187.579 21.5022 187.579 23.4715L187.571 23.4555ZM176.977 24.211C176.977 23.5519 176.888 22.941 176.704 22.3944C176.519 21.8398 176.253 21.3655 175.9 20.9636C175.546 20.5617 175.104 20.2482 174.573 20.0151C174.043 19.79 173.424 19.6695 172.717 19.6695C172.403 19.6695 172.098 19.6855 171.792 19.7257C171.495 19.7659 171.197 19.8222 170.916 19.9026L170.538 28.6964H171.109C171.784 28.6964 172.476 28.6079 173.175 28.4391C173.874 28.2623 174.509 27.997 175.064 27.6353C175.626 27.2736 176.085 26.8074 176.438 26.2367C176.792 25.666 176.969 24.9908 176.969 24.203L176.977 24.211Z" fill="white"/>
<path d="M217.473 19.9588C217.473 21.1244 217.417 22.4105 217.305 23.8091C217.192 25.2158 217.015 26.6627 216.758 28.1578C216.501 29.6529 216.179 31.1721 215.777 32.7074C215.375 34.2427 214.877 35.7217 214.274 37.1445C213.671 38.5672 212.98 39.8935 212.184 41.1314C211.388 42.3693 210.472 43.4464 209.443 44.3708C208.414 45.2952 207.257 46.0187 205.979 46.5492C204.701 47.0797 203.286 47.345 201.726 47.345C199.902 47.345 198.31 47.0475 196.96 46.4608C195.609 45.8659 194.46 45.0701 193.495 44.0734C192.531 43.0686 191.743 41.9031 191.132 40.5768C190.521 39.2425 190.039 37.8358 189.693 36.3407C189.348 34.8456 189.107 33.3263 188.97 31.775C188.833 30.2236 188.769 28.7285 188.769 27.2977C188.769 25.0872 188.881 22.8847 189.098 20.6903C189.316 18.4878 189.637 16.2934 190.047 14.107L201.116 14.533C200.69 17.0088 200.32 19.4926 200.014 21.9925C199.709 24.4924 199.556 27.0003 199.556 29.5243C199.556 29.7895 199.564 30.1915 199.588 30.722C199.612 31.2525 199.653 31.8393 199.717 32.4984C199.781 33.1495 199.87 33.8247 199.99 34.508C200.111 35.1912 200.272 35.8182 200.473 36.3889C200.673 36.9596 200.923 37.4178 201.22 37.7875C201.509 38.1493 201.855 38.3341 202.249 38.3341C202.707 38.3341 203.117 38.1171 203.479 37.683C203.841 37.249 204.162 36.6702 204.435 35.9468C204.709 35.2234 204.95 34.3874 205.159 33.4389C205.36 32.4904 205.537 31.5097 205.681 30.4808C205.826 29.46 205.939 28.4311 206.027 27.4102C206.115 26.3894 206.188 25.4328 206.236 24.5486C206.292 23.6644 206.324 22.8847 206.34 22.2095C206.357 21.5343 206.365 21.0279 206.365 20.6983C206.365 19.4685 206.348 18.2467 206.308 17.0249C206.268 15.8031 206.212 14.5893 206.131 13.3755H217.2C217.393 15.5539 217.481 17.7564 217.481 19.999L217.473 19.9588Z" fill="white"/>
<path d="M255.92 11.776L253.742 46.4849L242.962 46.9592L243.059 28.6562L238.188 43.4063H234.024L230.286 30.2156L230.238 45.5364L219.314 45.866L219.788 13.1907L231.942 12.7165L236.765 28.3668L243.196 11.7679H255.92V11.776Z" fill="white"/>
<path d="M285.195 23.5037C285.195 25.031 284.97 26.3894 284.512 27.571C284.054 28.7526 283.427 29.7815 282.631 30.6657C281.835 31.5499 280.903 32.2975 279.826 32.9084C278.748 33.5193 277.607 34.0257 276.385 34.4115C275.163 34.7974 273.901 35.0787 272.591 35.2636C271.281 35.4485 269.995 35.5449 268.741 35.561V46.5814H257.721C257.721 42.9722 257.721 39.3791 257.745 35.8021C257.761 32.2252 257.785 28.616 257.817 24.9747C257.849 23.0536 257.857 21.1324 257.841 19.2033C257.825 17.2821 257.865 15.3449 257.962 13.3836C259.979 12.7808 261.997 12.3387 264.014 12.0332C266.032 11.7358 268.114 11.5831 270.26 11.5831C271.474 11.5831 272.688 11.6795 273.901 11.8805C275.115 12.0814 276.281 12.3869 277.39 12.8129C278.499 13.2389 279.536 13.7695 280.485 14.4125C281.441 15.0475 282.261 15.8112 282.952 16.6954C283.644 17.5796 284.19 18.5843 284.592 19.7097C284.994 20.835 285.195 22.1051 285.195 23.5037ZM274.697 24.3075C274.697 23.2867 274.384 22.4829 273.765 21.9041C273.146 21.3254 272.334 21.044 271.337 21.044C271.008 21.044 270.662 21.0681 270.308 21.1244C269.955 21.1807 269.617 21.245 269.304 21.3254L269.022 28.2302C269.239 28.2623 269.456 28.2784 269.657 28.2784H270.292C270.863 28.2784 271.41 28.1819 271.932 27.9971C272.463 27.8041 272.929 27.5389 273.339 27.1852C273.749 26.8315 274.078 26.4135 274.319 25.9312C274.561 25.449 274.689 24.9104 274.689 24.3075H274.697Z" fill="white"/>
<path d="M296.971 8.03821L294.326 22.4105L287.044 22.6436L285.581 8.27132L296.979 8.03821H296.971Z" fill="white"/>
<path d="M321.962 33.672C321.962 35.8343 321.584 37.7152 320.836 39.3309C320.089 40.9466 319.06 42.2889 317.766 43.3661C316.464 44.4351 314.944 45.239 313.2 45.7775C311.456 46.3161 309.583 46.5813 307.581 46.5813C306.81 46.5813 305.966 46.4768 305.041 46.2759C304.117 46.0749 303.185 45.8177 302.236 45.5042C301.288 45.1988 300.379 44.8692 299.503 44.5075C298.627 44.1538 297.855 43.8162 297.172 43.5027L298.209 33.7604C299.551 34.5642 301.038 35.1751 302.662 35.5931C304.294 36.0111 305.901 36.2201 307.477 36.2201C307.774 36.2201 308.136 36.2121 308.562 36.1879C308.988 36.1638 309.39 36.0915 309.784 35.979C310.17 35.8584 310.499 35.6815 310.765 35.4484C311.03 35.2153 311.167 34.8697 311.167 34.4276C311.167 34.1302 311.07 33.8729 310.885 33.6559C310.692 33.4389 310.451 33.2701 310.154 33.1334C309.856 32.9968 309.519 32.9003 309.141 32.828C308.763 32.7556 308.393 32.7074 308.032 32.6753C307.67 32.6431 307.332 32.627 307.011 32.627H306.255C304.897 32.627 303.667 32.3939 302.558 31.9197C301.448 31.4454 300.492 30.7863 299.696 29.9423C298.9 29.0983 298.281 28.1015 297.839 26.936C297.397 25.7785 297.18 24.5245 297.18 23.1661C297.18 21.3093 297.558 19.6373 298.305 18.1663C299.053 16.6953 300.058 15.4414 301.312 14.4044C302.566 13.3756 304.004 12.5798 305.628 12.0251C307.252 11.4705 308.932 11.1972 310.668 11.1972C311.44 11.1972 312.236 11.2213 313.055 11.2776C313.875 11.3339 314.687 11.4303 315.499 11.575C316.311 11.7197 317.107 11.8965 317.878 12.1216C318.65 12.3386 319.382 12.62 320.081 12.9495L319.181 22.5471C318.112 22.1854 316.986 21.88 315.813 21.6388C314.639 21.3977 313.49 21.2691 312.372 21.2691C312.163 21.2691 311.906 21.2691 311.576 21.2851C311.255 21.2851 310.917 21.3173 310.556 21.3575C310.202 21.3977 309.84 21.4539 309.479 21.5343C309.117 21.6147 308.795 21.7192 308.506 21.8558C308.225 21.9925 307.991 22.1693 307.823 22.3864C307.646 22.6034 307.573 22.8687 307.59 23.1661C307.606 23.5117 307.734 23.7931 307.983 24.002C308.233 24.211 308.546 24.3798 308.932 24.5004C309.318 24.621 309.744 24.7014 310.21 24.7496C310.676 24.7978 311.134 24.8219 311.593 24.83C312.051 24.83 312.477 24.83 312.871 24.83C313.264 24.83 313.586 24.83 313.843 24.8621C315.105 24.9425 316.239 25.2078 317.251 25.666C318.256 26.1241 319.116 26.727 319.816 27.4906C320.515 28.2462 321.053 29.1465 321.423 30.1995C321.793 31.2445 321.978 32.402 321.978 33.664L321.962 33.672Z" fill="white"/>
<path d="M117.398 78.927C117.398 82.8899 116.891 86.4588 115.871 89.6419C114.85 92.8251 113.435 95.6545 111.61 98.1303C109.786 100.606 107.615 102.736 105.099 104.513C102.583 106.297 99.8263 107.76 96.8281 108.901C93.8298 110.043 90.6386 110.895 87.2626 111.45C83.8785 112.004 80.4141 112.277 76.8451 112.277C75.5188 112.277 74.2166 112.245 72.9385 112.173C71.6685 112.101 70.3663 111.996 69.032 111.851L70.2216 54.9169C73.3324 53.9282 76.5316 53.2289 79.8273 52.819C83.1229 52.409 86.3945 52.2081 89.65 52.2081C93.6932 52.2081 97.4149 52.819 100.807 54.0327C104.199 55.2465 107.125 56.9988 109.593 59.2897C112.052 61.5806 113.965 64.3779 115.34 67.6896C116.715 71.0014 117.398 74.7472 117.398 78.9351V78.927ZM100.003 81.6439C100.027 80.1167 99.8665 78.6457 99.5128 77.231C99.1591 75.8162 98.5804 74.5623 97.7766 73.4771C96.9727 72.392 95.9439 71.5078 94.6979 70.8486C93.452 70.1815 91.9649 69.8198 90.2448 69.7635L88.5487 96.0645C90.2448 95.8072 91.7881 95.2526 93.1707 94.3925C94.5533 93.5324 95.7509 92.4714 96.7557 91.2094C97.7605 89.9474 98.5402 88.5487 99.0868 87.0054C99.6414 85.4621 99.9388 83.8705 99.9951 82.2307V81.6359L100.003 81.6439Z" fill="white"/>
<path d="M172.379 82.6568C172.379 85.229 172.082 87.7128 171.487 90.1001C170.892 92.4875 170.04 94.7301 168.923 96.8281C167.805 98.918 166.447 100.839 164.847 102.575C163.248 104.312 161.455 105.807 159.462 107.053C157.468 108.299 155.298 109.263 152.951 109.963C150.604 110.654 148.112 110.999 145.483 110.999C142.855 110.999 140.516 110.678 138.209 110.027C135.902 109.376 133.747 108.467 131.738 107.294C129.728 106.12 127.912 104.706 126.288 103.05C124.664 101.394 123.274 99.553 122.132 97.5355C120.991 95.5098 120.099 93.3395 119.464 91.0245C118.829 88.7095 118.507 86.29 118.507 83.766C118.507 81.242 118.804 78.8949 119.399 76.5317C119.994 74.1684 120.846 71.9419 121.963 69.8519C123.081 67.762 124.431 65.8328 126.015 64.0805C127.598 62.3282 129.375 60.817 131.336 59.5389C133.305 58.2689 135.427 57.2802 137.718 56.5728C140.009 55.8655 142.429 55.5118 144.977 55.5118C149.076 55.5118 152.814 56.1468 156.198 57.4249C159.574 58.6949 162.46 60.5115 164.855 62.8748C167.243 65.238 169.099 68.0916 170.41 71.4435C171.728 74.7954 172.379 78.5332 172.379 82.6648V82.6568ZM153.546 83.758C153.546 82.5442 153.369 81.3626 153.015 80.2132C152.661 79.0717 152.147 78.0509 151.464 77.1586C150.788 76.2664 149.944 75.543 148.94 74.9964C147.935 74.4417 146.785 74.1684 145.483 74.1684C144.181 74.1684 142.967 74.4096 141.922 74.8919C140.877 75.3742 139.977 76.0333 139.23 76.8612C138.482 77.6972 137.903 78.6698 137.509 79.7871C137.115 80.9044 136.915 82.086 136.915 83.332C136.915 84.5779 137.083 85.7113 137.421 86.8929C137.759 88.0825 138.273 89.1597 138.948 90.1162C139.623 91.0808 140.467 91.8525 141.472 92.4473C142.477 93.0421 143.642 93.3395 144.969 93.3395C146.295 93.3395 147.493 93.0743 148.554 92.5518C149.615 92.0293 150.515 91.3219 151.247 90.4297C151.978 89.5375 152.549 88.5166 152.943 87.3511C153.337 86.1936 153.537 84.9878 153.537 83.7419L153.546 83.758Z" fill="white"/>
<path d="M226.556 103.958C225.23 105.63 223.59 107.085 221.637 108.331C219.684 109.577 217.594 110.606 215.359 111.425C213.125 112.245 210.834 112.864 208.487 113.274C206.139 113.684 203.905 113.885 201.783 113.885C197.683 113.885 193.905 113.146 190.457 111.683C187.009 110.212 184.026 108.186 181.527 105.598C179.027 103.009 177.065 99.963 175.651 96.4584C174.236 92.9537 173.529 89.1758 173.529 85.1325C173.529 82.0539 173.882 79.0315 174.59 76.0735C175.297 73.1154 176.31 70.3342 177.62 67.7138C178.938 65.1014 180.538 62.6899 182.435 60.5035C184.332 58.3091 186.478 56.4201 188.881 54.8366C191.285 53.2531 193.913 52.0232 196.775 51.1471C199.629 50.2709 202.683 49.8288 205.939 49.8288C207.152 49.8288 208.454 49.877 209.845 49.9735C211.228 50.0699 212.61 50.2387 213.985 50.4799C215.359 50.721 216.694 51.0506 217.996 51.4766C219.298 51.9026 220.488 52.4251 221.557 53.0441L220.367 69.2491C218.784 68.6542 217.152 68.2523 215.464 68.0433C213.784 67.8343 212.136 67.7218 210.52 67.7218C208.253 67.7218 206.139 68.0675 204.178 68.7587C202.209 69.45 200.505 70.4468 199.042 71.7489C197.587 73.0511 196.429 74.6347 195.585 76.4995C194.733 78.3644 194.315 80.4704 194.315 82.8175C194.315 84.2885 194.516 85.7113 194.91 87.0778C195.304 88.4523 195.907 89.6661 196.711 90.7271C197.514 91.7882 198.519 92.6402 199.725 93.2913C200.931 93.9424 202.321 94.2639 203.905 94.2639C204.982 94.2639 206.091 94.1192 207.233 93.8379C208.382 93.5566 209.363 93.0743 210.183 92.3991L210.351 89.0873L200.167 88.9185L200.673 76.1941C204.885 76.0494 209.098 75.9288 213.318 75.8323C217.53 75.7359 221.774 75.5992 226.042 75.4304L226.548 103.942L226.556 103.958Z" fill="white"/>
</g>
<defs>
<clipPath id="clip0_1_84">
<rect width="330" height="121.923" fill="white"/>
</clipPath>
</defs>
</svg>
